<svg width="39" height="39" viewBox="0 0 39 39" fill="none" xmlns="http://www.w3.org/2000/svg">
<path d="M19.5175 38.1169C14.9352 38.1169 10.3623 38.1169 5.77993 38.1169C2.91009 38.107 1 36.1107 1 33.0814C1 23.7453 1 14.4092 1 5.07303C1 2.15301 2.93832 0.116943 5.71406 0.116943C14.9352 0.116943 24.1563 0.116943 33.368 0.116943C36.0779 0.116943 38.0256 2.15301 38.0256 5.02337C38.0256 14.4092 38.0256 23.7949 38.0256 33.1807C38.0256 36.0809 36.0967 38.107 33.3398 38.1169C28.7386 38.1169 24.1281 38.1169 19.5175 38.1169ZM19.4987 1.34852C14.907 1.34852 10.3058 1.34852 5.71406 1.34852C3.55933 1.34852 2.16675 2.81846 2.16675 5.11276C2.16675 14.4489 2.16675 23.785 2.16675 33.1211C2.16675 35.4254 3.55933 36.9052 5.76111 36.9052C14.9352 36.9052 24.1093 36.9052 33.2833 36.9052C33.6409 36.9052 34.0078 36.8754 34.356 36.786C35.9273 36.3788 36.8965 34.9784 36.8965 33.1311C36.9059 28.2445 36.8965 23.3679 36.8965 18.4813C36.8965 14.0317 36.9059 9.57225 36.8965 5.12269C36.8871 2.81846 35.4945 1.34852 33.3398 1.34852C28.7198 1.34852 24.1093 1.34852 19.4987 1.34852Z" fill="white" stroke="white" stroke-width="0.2"/>
<path d="M8.70499 23.1166C7.80059 22.9541 7.49149 22.6638 7.44569 21.8743C7.86927 21.9788 8.24706 22.0717 8.67064 22.1645C8.69354 22.0833 8.71643 21.9323 8.72788 21.9323C8.26996 21.5376 7.84638 21.2357 7.50294 20.8525C7.37701 20.7132 7.43425 20.3997 7.3999 20.1675C7.61742 20.1559 7.85783 20.0862 8.05244 20.1559C8.38444 20.272 8.69354 20.481 9.05988 20.6783C9.16291 20.4577 9.27739 20.2023 9.41477 19.912C8.68209 19.7843 8.12113 19.4592 7.83493 18.7858C7.75479 18.6 7.7319 18.3097 7.81203 18.1472C7.86927 18.0427 8.20127 18.0311 8.38444 18.0659C9.04843 18.2052 9.60939 18.5071 9.81545 19.1689C10.6054 18.5768 11.3953 17.973 12.1394 17.4041C10.9259 16.8584 10.4565 16.0456 10.7084 14.8148C10.8229 14.2459 11.1549 13.8744 11.7044 13.7466C12.2424 13.6189 12.6202 13.9208 12.9179 14.3388C13.559 15.2328 13.5132 16.3707 12.7462 17.288C13.6277 17.2415 14.2688 17.6479 14.887 18.1239C15.9974 18.9832 16.2149 20.0281 15.7685 21.3634C15.4594 22.2807 15.219 23.256 15.1159 24.2197C15.0014 25.3227 15.5281 26.1471 16.5813 26.5883C17.2109 26.8553 17.852 27.1224 18.4359 27.4939C20.3706 28.7363 20.5309 31.4416 18.8022 32.8233C17.5887 33.787 15.8944 33.7522 14.761 32.684C14.3375 32.2776 13.9139 31.8248 13.6391 31.3023C12.8034 29.7465 11.7387 28.3648 10.5939 27.0295C9.62083 25.9265 8.85381 24.6841 8.70499 23.1166ZM10.1017 22.687C10.1017 22.7451 10.1131 22.8031 10.1131 22.8612C10.1474 23.9178 10.6054 24.8118 11.2465 25.5898C12.563 27.2153 13.9368 28.806 14.8984 30.6985C15.0243 30.954 15.2419 31.163 15.425 31.3836C15.9402 31.999 16.6042 32.2544 17.3712 32.0106C18.0352 31.79 18.4588 31.3023 18.5504 30.5824C18.6534 29.7465 18.287 29.1079 17.6116 28.6782C17.2109 28.4228 16.7644 28.237 16.3294 28.0513C14.3489 27.1921 13.559 26.0426 13.7307 23.8597C13.8223 22.7799 14.2001 21.7233 14.5092 20.6783C14.658 20.1907 14.6008 19.7843 14.2344 19.4708C13.8108 19.1225 13.4331 18.5768 12.7462 18.8322C11.235 19.3779 10.0902 21.0383 10.1017 22.687Z" fill="white" stroke="white" stroke-width="0.2"/>
<path d="M28.7398 17.4072C29.4806 17.9642 30.2555 18.5559 31.0532 19.1592C31.2811 18.4979 31.8737 18.173 32.5917 18.0454C33.0931 17.9526 33.264 18.1962 33.0817 18.6835C32.8082 19.4145 32.2498 19.7974 31.4521 19.9134C31.5888 20.2035 31.7028 20.4587 31.8053 20.6792C32.2042 20.4819 32.5575 20.2731 32.9449 20.1338C33.0931 20.0758 33.378 20.1106 33.4578 20.2151C33.5375 20.3195 33.4919 20.5863 33.4236 20.7488C33.2412 21.2593 32.8652 21.5378 32.1358 21.7466C32.1472 21.8974 32.1586 22.0483 32.1586 22.1759C32.5803 22.0715 32.9677 21.9787 33.378 21.8742C33.3552 22.6632 33.0361 22.9649 32.1472 23.1041C32.0105 24.7285 31.1672 26.028 30.1301 27.2114C29.0475 28.4645 28.0789 29.7872 27.2812 31.2491C26.7569 32.2121 26.039 33.0127 24.9564 33.3724C23.5547 33.8249 22.0162 33.1867 21.2983 31.864C20.5689 30.5414 20.8538 28.8126 22.0504 27.8147C22.5746 27.3855 23.2014 27.0838 23.8282 26.8053C25.5604 26.028 26.0504 25.1578 25.6971 23.2433C25.5946 22.6632 25.4236 22.0831 25.1957 21.5262C24.3866 19.5305 25.6743 17.442 27.8054 17.2912C27.8851 17.2912 27.9535 17.2796 28.0903 17.268C27.3039 16.421 27.3381 15.516 27.794 14.5762C28.1017 13.9381 28.6259 13.6248 29.1501 13.7408C29.7541 13.8801 30.1415 14.3906 30.1757 15.0983C30.2783 16.3398 29.9022 16.8851 28.7398 17.4072ZM30.7797 22.4892C30.6999 21.0272 29.925 19.809 28.5347 19.02C27.8054 18.6023 27.4749 18.6835 26.7228 19.3913C26.2327 19.8554 26.2441 20.157 26.472 20.8996C26.7683 21.851 27.0532 22.8256 27.1672 23.8003C27.3951 25.7727 26.5746 27.107 24.8082 27.9192C24.4777 28.07 24.1359 28.186 23.8168 28.3601C23.4977 28.5341 23.1672 28.7082 22.9165 28.9518C22.153 29.6944 22.1302 30.8198 22.8253 31.5392C23.5319 32.2701 24.6145 32.2585 25.3552 31.458C25.7313 31.0519 26.0162 30.5762 26.3353 30.1121C27.0418 29.091 27.737 28.0468 28.4549 27.0374C28.9108 26.3992 29.4464 25.8191 29.9022 25.181C30.4492 24.45 30.7683 23.603 30.7797 22.4892Z" fill="white" stroke="white" stroke-width="0.2"/>
<path d="M20.4464 4.7284C21.9619 4.7284 23.4773 4.7284 24.9928 4.7284C26.7777 4.73977 27.6982 6.20564 26.9236 7.85333C26.2164 9.35329 25.4868 10.8533 24.7908 12.3532C24.3642 13.285 23.6682 13.7282 22.6691 13.7168C21.1536 13.7055 19.6381 13.7168 18.1227 13.7168C17.146 13.7168 16.45 13.2964 16.0459 12.376C15.3611 10.8646 14.6539 9.35329 13.9691 7.84197C13.2058 6.16019 14.1263 4.71704 15.9673 4.71704C17.4603 4.71704 18.9534 4.7284 20.4464 4.7284ZM20.4801 6.1261C18.9421 6.1261 17.4154 6.1261 15.8775 6.1261C15.1478 6.1261 14.8897 6.52382 15.1927 7.19426C15.8775 8.70558 16.5847 10.2055 17.2583 11.7282C17.4491 12.1487 17.7185 12.3191 18.1676 12.3191C19.6494 12.2964 21.1199 12.2964 22.6017 12.3191C23.0844 12.3305 23.3539 12.1373 23.5559 11.7055C24.2407 10.2169 24.9591 8.73967 25.6551 7.25107C26.0031 6.51245 25.7562 6.1261 24.9479 6.1261C23.4661 6.1261 21.9731 6.1261 20.4801 6.1261Z" fill="white" stroke="white" stroke-width="0.2"/>
<path d="M31.1981 16.4171C31.618 16.4171 31.8097 16.6128 31.6363 16.9687C31.4263 17.3779 31.1251 17.7604 30.8056 18.0985C30.6869 18.223 30.2944 18.2586 30.1666 18.1607C30.0023 18.0362 29.8836 17.7337 29.9019 17.5202C29.9201 16.9598 30.6139 16.4082 31.1981 16.4171Z" fill="white" stroke="white" stroke-width="0.2"/>
<path d="M9.75891 16.4179C10.3057 16.4446 10.9618 16.9592 10.9982 17.4828C11.0164 17.7135 10.8889 18.0152 10.7248 18.1661C10.6064 18.2637 10.2145 18.2105 10.087 18.0951C9.76802 17.7934 9.47642 17.4384 9.28506 17.0569C9.06636 16.6309 9.28506 16.4002 9.75891 16.4179Z" fill="white" stroke="white" stroke-width="0.2"/>
<path d="M20.4976 7.41699C20.9358 8.64543 21.3572 9.75636 21.7449 10.878C21.8797 11.2732 21.7954 11.6791 21.1718 11.8394C20.7335 11.9462 20.1099 11.9462 19.6885 11.818C19.0986 11.6471 19.0143 11.2519 19.166 10.8459C19.5537 9.80977 19.9076 8.77361 20.2953 7.73745C20.329 7.66268 20.3796 7.59859 20.4976 7.41699Z" fill="white" stroke="white" stroke-width="0.2"/>
</svg>
