<svg width="27" height="36" viewBox="0 0 27 36" fill="none" xmlns="http://www.w3.org/2000/svg">
<path fill-rule="evenodd" clip-rule="evenodd" d="M26.514 33.0675V19.6244V19.6225C26.514 15.0861 26.514 10.5776 26.486 6.04119C26.486 5.09816 26.486 4.6221 26.248 4.38176C26.0053 4.13674 25.5152 4.13674 24.5255 4.13674C22.6211 4.10873 20.6886 4.08072 18.7842 4.13674C18 4.16475 17.5239 3.91269 17.1878 3.15651C16.5437 1.70016 15.3394 1 13.743 1C12.1466 1 10.9143 1.72817 10.3542 3.24053C10.0181 4.05272 9.514 4.19275 8.72982 4.19275C7.92258 4.18154 7.11534 4.18828 6.3099 4.19501H6.30986H6.30983C5.10331 4.20509 3.90082 4.21513 2.7084 4.16475C1.4201 4.10873 1 4.50082 1 5.81713C1.05601 15.0033 1.05601 24.1895 1 33.3756C1 34.6919 1.50412 35 2.73641 35C8.2191 34.958 13.7176 34.9632 19.2081 34.9685H19.2082H19.2095H19.2122H19.2148C21.0422 34.9702 22.8688 34.972 24.6936 34.972C25.5901 34.972 26.0451 34.972 26.276 34.7445C26.514 34.5101 26.514 34.0341 26.514 33.0675ZM2.37582 22.6631C2.37407 21.6129 2.37232 20.5626 2.37232 19.5124C2.37232 18.6721 2.37344 17.8319 2.37457 16.9917V16.9912C2.37904 13.6306 2.38352 10.27 2.31631 6.90939C2.31631 5.78913 2.6804 5.36903 3.77265 5.50906H3.91269C7.13344 5.45305 7.18946 5.45305 7.21746 8.6458C7.24547 9.68204 7.60955 9.99012 8.6458 9.99012C12.0066 9.96211 15.3674 9.96211 18.7282 10.0181C19.8764 10.0181 20.2685 9.65404 20.2685 8.47776C20.2405 5.48105 20.2965 5.48105 23.2652 5.50906C25.1417 5.50906 25.1417 5.50906 25.1417 7.32949C25.1417 9.38104 25.1399 11.4326 25.1382 13.4841C25.1329 19.6385 25.1277 25.7929 25.1697 31.9473C25.1977 33.2076 24.8896 33.6277 23.5453 33.6277C16.9918 33.5717 10.4102 33.5717 3.82867 33.6277C2.65239 33.6557 2.31631 33.2636 2.34431 32.1153C2.38632 28.9648 2.38107 25.8143 2.37582 22.6639V22.6631ZM14.4098 8.65798C14.1882 8.66351 13.966 8.66906 13.743 8.67381C13.4074 8.67381 13.0717 8.67206 12.7356 8.67031H12.7355H12.7354C11.7255 8.66506 10.7117 8.65978 9.68204 8.70181C8.6458 8.72982 8.53377 8.08567 8.61779 7.32949C8.63731 7.16037 8.6251 6.96859 8.61274 6.7745C8.57188 6.1329 8.52943 5.46606 9.62603 5.50906C10.6903 5.56507 11.1944 5.20099 11.4465 4.10873C11.7265 2.98847 12.6227 2.31631 13.855 2.37232C15.0593 2.42834 15.8995 3.10049 16.1236 4.27677C16.3196 5.28501 16.8237 5.59308 17.7479 5.50906C18.9023 5.39363 18.8957 6.0775 18.8892 6.76059C18.8878 6.90616 18.8864 7.0517 18.8962 7.18946C18.9522 8.05766 18.8402 8.75783 17.6639 8.67381C16.5706 8.60402 15.4966 8.63084 14.4098 8.65798ZM14.9971 14.2437L14.9954 14.2437C14.5409 14.2455 14.0859 14.2472 13.6309 14.2472C12.8752 14.2592 12.1195 14.2558 11.3616 14.2524C10.35 14.2478 9.33441 14.2432 8.30968 14.2752C8.05582 14.2948 7.81558 14.4913 7.57946 14.6845L7.5794 14.6845C7.47689 14.7684 7.37516 14.8516 7.27344 14.9194C7.39382 14.9935 7.51114 15.089 7.62743 15.1837L7.62746 15.1837L7.62749 15.1837C7.86288 15.3754 8.09401 15.5635 8.33769 15.5635C11.9225 15.5916 15.5074 15.5916 19.0922 15.5635C19.3349 15.5635 19.5777 15.3893 19.8204 15.215C19.9418 15.1279 20.0631 15.0408 20.1845 14.9754C20.0558 14.8927 19.9331 14.7918 19.8125 14.6927C19.5657 14.4898 19.3276 14.2941 19.0642 14.2752C17.7203 14.2332 16.3607 14.2385 14.9971 14.2437ZM15.0714 18.8367H15.0715H15.0717C16.3652 18.8315 17.6509 18.8263 18.9523 18.8683C19.2427 18.8876 19.5197 19.0676 19.8018 19.2509C19.9278 19.3327 20.0548 19.4152 20.1845 19.4844C20.0611 19.5637 19.9405 19.6597 19.8209 19.7549C19.5605 19.9621 19.305 20.1654 19.0363 20.1846C15.4794 20.2406 11.9506 20.2406 8.39377 20.1846C8.13891 20.1846 7.88404 19.9924 7.62918 19.8003L7.6291 19.8003C7.51991 19.7179 7.41071 19.6356 7.30151 19.5684C7.42492 19.4891 7.54556 19.3931 7.66517 19.2979C7.92557 19.0908 8.1811 18.8875 8.44978 18.8683C9.77398 18.8262 11.114 18.8315 12.446 18.8368C12.8889 18.8385 13.3308 18.8403 13.771 18.8403C14.2059 18.8403 14.6391 18.8385 15.0714 18.8367ZM11.9972 23.4801C11.7035 23.4847 11.4081 23.4894 11.1103 23.4894C10.8405 23.4894 10.5685 23.4849 10.2941 23.4803C9.60035 23.4689 8.89219 23.4572 8.16965 23.5174C7.96395 23.5361 7.77074 23.7171 7.57335 23.902C7.4751 23.994 7.37582 24.0871 7.27344 24.1615C7.3572 24.2267 7.44096 24.3166 7.52576 24.4076C7.69612 24.5904 7.87063 24.7777 8.05762 24.7777C10.1021 24.8337 12.1466 24.8337 14.1911 24.7777C14.3738 24.7777 14.5446 24.6107 14.7191 24.4403C14.812 24.3495 14.9059 24.2577 15.0033 24.1895C14.9099 24.1148 14.8197 24.0184 14.7294 23.9219C14.5489 23.729 14.3684 23.536 14.1631 23.5174C13.4445 23.4575 12.7259 23.4687 11.9972 23.4801Z" fill="white" stroke="white" stroke-width="0.4"/>
</svg>
