<svg width="42" height="32" viewBox="0 0 42 32" fill="none" xmlns="http://www.w3.org/2000/svg">
<path fill-rule="evenodd" clip-rule="evenodd" d="M19.7286 6.79459C19.6571 6.72311 19.5576 6.62368 19.3961 6.48695C19.5942 6.30966 19.7924 6.13456 19.9896 5.96028C20.7326 5.30364 21.4627 4.65852 22.1306 3.9513C22.3419 3.73998 22.4285 3.39146 22.514 3.0471C22.5492 2.90532 22.5843 2.76425 22.6278 2.63375C22.4805 2.68285 22.3224 2.71847 22.1651 2.75393C21.8445 2.8262 21.527 2.89777 21.3102 3.08122C20.6511 3.67099 20.0403 4.29708 19.4189 4.93413C19.1497 5.21006 18.8785 5.48805 18.6006 5.76603L18.6005 5.76598C18.3768 5.46771 18.3022 5.36828 18.2525 5.26884C16.9847 2.4846 14.8468 1.04275 12.1869 1.19191C9.47718 1.36593 7.53816 3.00664 6.5935 5.89033C6.4692 6.28808 5.94716 6.71069 5.52455 6.83498C2.7403 7.70506 1.00015 9.91754 1.00015 12.8261C0.975288 17.5991 4.10757 21.9992 8.63197 23.5653C8.9805 23.6921 9.37698 23.786 9.77076 23.8793C10.6128 24.0788 11.4424 24.2753 11.7642 24.7834C12.1583 25.4174 12.08 26.3231 12.0014 27.2317C11.966 27.6413 11.9305 28.0515 11.9383 28.4378V28.6864C12.0128 29.457 11.6151 29.7056 10.8942 29.6807C9.94951 29.6559 8.98 29.631 8.03534 29.7056C7.84232 29.7231 7.64929 29.8893 7.45627 30.0555C7.37584 30.1248 7.29541 30.194 7.21498 30.2525C7.2906 30.313 7.36622 30.3896 7.44253 30.4669C7.61711 30.6437 7.79535 30.8243 7.98562 30.8243C11.0185 30.874 14.0264 30.874 17.0593 30.8243C17.2417 30.8243 17.4131 30.6583 17.5881 30.4888C17.6755 30.4042 17.7638 30.3187 17.8548 30.2525C17.7568 30.1872 17.6642 30.1084 17.5734 30.0313C17.3878 29.8735 17.2099 29.7223 17.0096 29.7056C16.1395 29.631 15.2694 29.631 14.3993 29.6807C13.4795 29.7304 13.0072 29.4321 13.1066 28.4129C13.1812 27.4682 13.1812 26.4987 13.1066 25.5541C13.0321 24.5597 13.405 24.2365 14.3745 24.0625C19.3463 23.1427 22.9261 19.6624 23.821 15.0386C24.6165 11.0114 23.5476 8.79887 19.8933 6.93442C19.8435 6.90956 19.8 6.86606 19.7286 6.79459ZM9.44865 13.3288C10.4706 13.326 11.4917 13.3233 12.51 13.3233C13.5219 13.3233 14.5338 13.326 15.5447 13.3288C17.5638 13.3343 19.5793 13.3398 21.5837 13.3233C22.6278 13.2984 22.8764 13.6713 22.6775 14.6408C21.7577 19.5133 17.4073 23.093 12.3857 23.0433C7.46358 22.9936 3.21263 19.3392 2.34255 14.5165C2.16854 13.6216 2.39227 13.3233 3.31207 13.3233C5.35145 13.3399 7.4019 13.3343 9.44865 13.3288ZM12.8758 9.01841C12.6749 9.18478 12.4713 9.35334 12.2614 9.51979C11.4162 8.25197 10.0987 7.15815 8.25908 6.7604C8.08506 6.71069 7.86133 6.16378 7.91105 5.91519C8.28394 4.02588 10.4467 2.41002 12.51 2.41002C14.5734 2.38516 16.7361 4.00102 17.1339 5.89033C17.1836 6.16378 17.0096 6.63611 16.7858 6.7604C16.4387 6.95075 16.0664 7.10579 15.6916 7.26188C15.2342 7.45234 14.7732 7.64435 14.3496 7.90393C13.8386 8.22114 13.365 8.61329 12.8758 9.01841ZM22.6775 11.9809H13.2807C13.753 9.49493 15.692 7.85422 18.0039 7.85422C20.3159 7.87908 22.3046 9.54465 22.6775 11.9809ZM6.91667 7.87908C9.32803 7.77964 11.5654 9.69381 11.6897 12.0306H2.46685C2.49171 9.86782 4.55503 7.95365 6.91667 7.87908ZM27.8743 16.5301V22.8692C27.8743 23.4286 27.8758 23.9879 27.8774 24.5472C27.882 26.2252 27.8867 27.9032 27.8494 29.5812C27.8245 30.5507 28.1974 30.8739 29.167 30.8739C32.697 30.8242 36.2021 30.8242 39.7322 30.8739C40.7514 30.8988 41 30.4513 41 29.5315C40.9876 27.3563 40.9876 25.1811 40.9876 23.0059C40.9876 20.8307 40.9876 18.6555 40.9751 16.4804C40.9503 14.2181 40.0056 12.3537 38.1412 11.0859C37.4948 10.6384 37.3208 10.1661 37.3208 9.44515C37.3315 8.45445 37.3284 7.45919 37.3254 6.46327C37.3213 5.13509 37.3173 3.80575 37.3457 2.48453C37.3705 1.61446 37.0971 1.19185 36.1524 1.21671C35.0338 1.26643 33.9151 1.26643 32.7964 1.21671C31.8269 1.16699 31.4789 1.56474 31.5037 2.53425C31.5321 3.84101 31.5281 5.13965 31.524 6.43945C31.521 7.41454 31.5179 8.39027 31.5286 9.37058C31.5286 10.1412 31.3297 10.6633 30.6585 11.1356C28.7941 12.4034 27.8991 14.2679 27.8743 16.5301ZM37.5446 12.2543C38.8372 12.9503 39.4339 14.243 39.5582 15.8589C39.2244 15.8589 38.897 15.8621 38.574 15.8652C37.6218 15.8745 36.7076 15.8834 35.7795 15.8091C34.9343 15.7843 34.6111 16.1075 34.6111 16.9775C34.636 19.9358 34.636 22.8692 34.6111 25.8026C34.6111 26.5981 34.9095 26.9461 35.705 26.9213C36.227 26.9088 36.7429 26.9151 37.2587 26.9213C37.7745 26.9275 38.2903 26.9337 38.8124 26.9213C39.8037 26.8791 39.7929 27.4632 39.782 28.0512C39.7801 28.1562 39.7781 28.2614 39.7819 28.3631C39.8068 29.084 39.757 29.6807 38.7627 29.6558C35.8541 29.6309 32.9704 29.6309 30.0619 29.6558C29.2912 29.6558 29.0675 29.3326 29.0675 28.6117C29.0782 26.865 29.0751 25.1138 29.0721 23.36C29.068 21.0201 29.064 18.6757 29.0924 16.3312C29.1172 14.417 30.0122 12.9006 31.6777 11.9559C32.4981 11.5085 32.7716 10.9367 32.697 10.0666C32.6805 9.78583 32.6859 9.516 32.6914 9.24256C32.6942 9.10448 32.697 8.96547 32.697 8.82367C32.7092 7.70027 32.6674 7.20665 32.8928 6.98634C33.1263 6.75812 33.6464 6.82315 34.81 6.7852C35.8293 6.73548 36.2519 7.05866 36.1276 8.10275C36.1026 8.31469 36.109 8.52662 36.1152 8.73542C36.1214 8.94298 36.1275 9.14744 36.1027 9.34572C35.9287 10.6384 36.2767 11.5582 37.5446 12.2543ZM39.757 19.8612V21.4771C39.757 21.7439 39.7555 22.0108 39.7539 22.278C39.7493 23.0813 39.7446 23.888 39.7819 24.7088C39.8068 25.5292 39.4587 25.8026 38.6632 25.7778C36.9476 25.7402 36.2476 25.8603 35.969 25.5725C35.6946 25.289 35.8291 24.6096 35.8044 22.9935C35.7937 22.3225 35.7968 21.6469 35.7998 20.9706C35.8039 20.0686 35.8079 19.1653 35.7795 18.2702C35.7547 17.425 36.0033 17.0521 36.8982 17.077C38.636 17.127 39.3301 17.0198 39.6002 17.3088C39.8672 17.5945 39.72 18.2672 39.757 19.8612ZM32.8935 2.67877C33.1006 2.45968 33.5395 2.45968 34.4869 2.45968C35.3198 2.45968 35.7299 2.45968 35.9285 2.66462C36.1212 2.86335 36.1149 3.25479 36.1027 4.02581C36.1027 5.59195 36.1027 5.59195 34.3377 5.59195C33.5255 5.57965 33.1154 5.57343 32.9083 5.36524C32.697 5.15286 32.697 4.7303 32.697 3.87666C32.7085 3.22021 32.7147 2.86788 32.8935 2.67877Z" fill="white" stroke="white" stroke-width="0.4"/>
</svg>
