<svg width="42" height="26" viewBox="0 0 42 26" fill="none" xmlns="http://www.w3.org/2000/svg">
<path fill-rule="evenodd" clip-rule="evenodd" d="M5.93985 15.9089V15.9089V15.9089V15.9089V15.9089C5.94756 16.2703 5.95528 16.6325 5.9784 16.9947L5.99508 17.1947C6.12833 18.7928 6.25987 20.3705 6.34876 21.9481C6.4182 22.9666 5.77008 23.7305 4.95993 23.7305C4.12663 23.7305 3.52481 22.9898 3.5711 21.9481C3.59672 21.4315 3.62077 20.914 3.64484 20.396L3.64484 20.396C3.75124 18.1062 3.85809 15.8067 4.10349 13.5226C4.24237 12.0875 4.0109 10.8607 3.15445 9.72646C2.34431 8.6617 2.04339 7.50434 2.11283 6.16181C2.20542 4.88872 2.18228 3.61562 2.11283 2.34253C2.09623 2.01037 1.9247 1.70204 1.75217 1.39189C1.68424 1.26978 1.61615 1.14739 1.5573 1.02315C1.50061 1.17704 1.4269 1.32526 1.35405 1.47178C1.21869 1.744 1.08626 2.01034 1.07121 2.29624C1.03857 2.85123 1.04685 3.41133 1.05517 3.97414C1.06455 4.60848 1.07398 5.24626 1.02492 5.88404C0.886037 7.73581 1.32583 9.33296 2.3906 10.8838C2.7841 11.4625 2.94613 12.3189 2.92298 13.0365C2.86849 14.3988 2.77295 15.756 2.67743 17.1128C2.57007 18.6378 2.46274 20.1624 2.41375 21.6935C2.3906 22.5037 2.64522 23.4759 3.08501 24.1008C3.73313 24.9804 4.82105 25.1887 5.90896 24.7027C7.02002 24.2166 7.57555 23.3601 7.50611 22.1333C7.43647 20.7903 7.35401 19.4515 7.27157 18.1133L7.27157 18.1132L7.27157 18.1132C7.16221 16.3379 7.05292 14.5636 6.97373 12.7819C6.95058 12.1801 7.18205 11.5319 7.41353 10.9533C7.57617 10.5595 7.79263 10.1784 8.00789 9.7994C8.37468 9.15361 8.73798 8.51398 8.8255 7.8284C9.02061 6.20901 8.95258 4.54029 8.88481 2.87768V2.87767V2.87767V2.87766V2.87766L8.88481 2.87762L8.88481 2.87758L8.88481 2.87755L8.8848 2.87751C8.87217 2.56769 8.85955 2.25807 8.84865 1.94903C8.84865 1.7324 8.67279 1.5261 8.49396 1.31633L8.49396 1.31632L8.49396 1.31632C8.40528 1.2123 8.31588 1.10742 8.24682 1C8.18394 1.11791 8.10504 1.23314 8.02735 1.34662C7.87625 1.5673 7.72972 1.78131 7.71444 1.99533C7.6946 2.68974 7.70027 3.38415 7.70593 4.07857C7.71349 5.00445 7.72105 5.93034 7.66814 6.85622C7.5987 7.66637 7.39038 8.54596 6.97373 9.21723C6.07099 10.6292 5.44602 12.018 5.77008 13.7541C5.90904 14.4643 5.92441 15.1849 5.93985 15.9089ZM22.4823 1.06946C15.7233 1.02317 10.4227 6.18498 10.3995 12.8976C10.3764 19.5872 15.6539 24.9341 22.2971 24.9573C28.8015 24.9804 34.241 19.6566 34.3105 13.1986C34.3799 6.50903 29.1255 1.11576 22.4823 1.06946ZM33.13 12.9671C33.13 18.8696 28.2922 23.6842 22.3666 23.7073C16.3715 23.7305 11.6032 18.9622 11.6032 12.9208C11.6032 7.13401 16.4641 2.22682 22.2508 2.20367C28.1302 2.18052 33.13 7.13401 33.13 12.9671ZM40.9537 12.3652V22.3185C40.9537 23.4758 40.3982 24.3091 39.3566 24.7721C38.3149 25.235 37.2502 25.0498 36.6252 24.2165C36.1391 23.5916 35.8382 22.5962 35.9308 21.8324C36.0619 20.4634 36.3029 19.1036 36.5443 17.7414C36.6866 16.9386 36.8291 16.1349 36.9493 15.328C37.0187 14.8651 37.0187 14.2633 36.7872 13.8929C35.329 11.5319 35.3753 9.17091 36.5095 6.74046C37.0566 5.57062 37.5423 4.38541 38.0291 3.19734C38.1395 2.92793 38.25 2.65836 38.3612 2.3888C38.6853 1.62495 39.1019 0.930532 40.0278 1.11571C41 1.30089 41 2.11104 41 2.94433C40.9445 5.40646 40.9482 7.92782 40.9519 10.461C40.9528 11.0953 40.9537 11.7302 40.9537 12.3652ZM39.6343 2.80545C39.5102 2.92956 39.4092 3.01208 39.3313 3.07572C39.2349 3.15451 39.1738 3.20437 39.1482 3.26839L39.1481 3.26873C38.4537 4.9815 37.7594 6.69428 37.1113 8.4302C36.5789 9.81903 36.6946 11.2079 37.4816 12.4347C38.2224 13.592 38.3381 14.7494 38.0603 16.0687C37.6668 18.0363 37.3428 20.0038 37.065 21.9944C36.903 23.1749 37.9214 24.0545 38.8705 23.6379C39.7038 23.2675 39.8195 22.5268 39.8195 21.7166C39.8195 18.7422 39.8253 15.7736 39.8311 12.805C39.8369 9.83639 39.8427 6.86777 39.8427 3.89336C39.8427 3.70383 39.7967 3.51429 39.7396 3.27848L39.7396 3.27843L39.7396 3.27836L39.7395 3.27823C39.706 3.13972 39.6686 2.98525 39.6343 2.80545ZM4.48646 4.5819V4.58189V4.58188C4.48017 4.36178 4.47384 4.14021 4.47384 3.91652C4.46612 3.68484 4.4687 3.45315 4.47127 3.22232C4.47642 2.76131 4.48152 2.30373 4.4044 1.85643C4.38829 1.64701 4.21523 1.46002 4.04126 1.27204C3.96525 1.18991 3.88906 1.10759 3.82572 1.02313C3.76602 1.09609 3.69302 1.17096 3.6187 1.24718L3.6187 1.24718C3.43365 1.43694 3.24041 1.63511 3.2239 1.83328C3.15445 3.2684 3.15445 4.68038 3.2239 6.09235C3.23903 6.27393 3.41243 6.44563 3.58891 6.62036C3.68239 6.71291 3.77673 6.80632 3.84887 6.9025C3.91822 6.81003 4.00297 6.72269 4.08688 6.6362C4.25502 6.46292 4.41981 6.29309 4.45069 6.09235C4.51532 5.59149 4.501 5.09063 4.48646 4.5819V4.5819ZM6.63909 4.65848V4.65849C6.65365 5.14248 6.66811 5.62307 6.60338 6.09235C6.57176 6.29791 6.41051 6.47106 6.24509 6.64871C6.16835 6.73111 6.09072 6.81448 6.0247 6.9025C5.96058 6.81433 5.87425 6.72894 5.78879 6.6444C5.62744 6.4848 5.46917 6.32824 5.46917 6.16179C5.42288 4.70352 5.44603 3.24526 5.49232 1.81013C5.49232 1.6392 5.63836 1.46827 5.79039 1.29034C5.86483 1.20322 5.94069 1.11443 6.00156 1.02313C6.06695 1.11033 6.14375 1.19524 6.21978 1.2793L6.21979 1.27931C6.38597 1.46304 6.54847 1.64271 6.58024 1.83328C6.64963 2.3711 6.64101 2.92192 6.63233 3.47599V3.476V3.47601C6.62943 3.66118 6.62653 3.84672 6.62653 4.03226C6.62653 4.24121 6.63282 4.45016 6.63909 4.65848ZM24.6581 21.3C28.2691 20.3973 30.9542 16.8558 30.8847 13.0828C30.8384 9.61073 29.3339 6.92566 26.4405 5.39795C24.2646 4.26374 21.9499 4.03227 19.6121 4.84242C19.4081 4.90516 19.2467 5.12737 19.0846 5.35054C19.0075 5.45668 18.9303 5.56304 18.8482 5.65257C18.9773 5.68483 19.1035 5.72272 19.2289 5.76035C19.4634 5.83071 19.6948 5.90017 19.9361 5.93033C20.0662 5.94479 20.2053 5.89607 20.3478 5.84616C20.4335 5.81614 20.5205 5.78569 20.6074 5.7683C22.5518 5.3748 24.4267 5.58313 26.1627 6.64789C29.1487 8.49966 30.6069 12.481 29.3339 15.4901C27.7367 19.2862 24.1026 21.1843 20.3759 20.1427C15.9317 18.9159 13.3623 13.7541 15.8622 9.30981C15.9884 9.0891 15.9534 8.77175 15.9183 8.45283C15.9019 8.3035 15.8854 8.15383 15.8854 8.01357C15.7671 8.10033 15.6273 8.17634 15.487 8.25258C15.2157 8.40011 14.9427 8.54853 14.8206 8.77743C13.2929 11.5551 13.2929 14.3559 14.7743 17.1567C16.6029 20.6056 20.6768 22.3185 24.6581 21.3Z" fill="white" stroke="white" stroke-width="0.4"/>
</svg>
