<svg width="31" height="32" viewBox="0 0 31 32" fill="none" xmlns="http://www.w3.org/2000/svg">
<path fill-rule="evenodd" clip-rule="evenodd" d="M10.266 15.5508C8.42862 14.5529 7.28819 13.1749 6.59126 11.4326C5.7993 9.48433 5.54587 7.50442 6.25864 5.477C7.36739 2.3725 10.361 0.566822 13.4813 1.08952C16.6175 1.61221 18.9776 4.38409 18.9617 7.71033C18.9459 10.9099 17.7896 13.5709 14.9386 15.3132C14.8967 15.3341 14.8618 15.3758 14.8018 15.4473C14.771 15.4841 14.7335 15.5287 14.6851 15.5824C15.1049 15.7092 15.5089 15.832 15.9128 15.9547L15.9134 15.9549C16.317 16.0776 16.7207 16.2003 17.1402 16.3269C16.8076 16.9763 16.4908 17.2139 15.7464 17.008C11.2005 15.7884 7.19316 17.0238 3.62932 19.9066C2.52057 20.8094 2.09291 22.0924 2.07707 23.5021C2.07097 23.9105 2.07661 24.3166 2.08224 24.7221L2.08224 24.7221C2.09123 25.3703 2.1002 26.0171 2.06123 26.6699C2.01371 27.5569 2.39386 28.1272 3.15414 28.3964C4.37377 28.8082 5.60923 29.2201 6.86053 29.4577C9.88583 30.0279 12.9428 30.1229 15.9998 29.7428C16.6967 29.6636 17.1719 29.8695 17.5204 30.4872C17.5006 30.503 17.4808 30.5209 17.461 30.5387C17.4016 30.5921 17.3422 30.6456 17.2828 30.6456C12.5943 31.2633 7.96928 31.1525 3.42341 29.6794C2.88487 29.5052 2.37802 29.1884 1.887 28.8716C1.26927 28.4598 1 27.8737 1 27.1134C1.01057 26.2892 1.00703 25.4579 1.00351 24.629C1.00175 24.2154 1 23.8024 1 23.3912C1.01584 21.3796 1.82364 19.7799 3.45509 18.5919C5.29244 17.2614 7.28819 16.2794 9.50569 15.7725C9.66079 15.7606 9.79792 15.7127 10.0186 15.6357C10.0909 15.6104 10.1722 15.582 10.266 15.5508ZM17.9005 8.4231C17.9322 5.0335 15.9998 2.64177 13.2279 2.13491C10.7728 1.69141 8.14351 3.22782 7.28819 5.8413C6.30616 8.77156 7.19316 11.3692 9.28394 13.5233C11.1055 15.3924 13.6081 15.3765 15.5088 13.5709C17.0927 12.0503 17.8213 10.1496 17.9005 8.4231ZM20.7516 28.1588C20.695 28.2051 20.6334 28.2531 20.569 28.3033C20.435 28.4076 20.2887 28.5215 20.1497 28.6499C19.3577 29.4102 19.3102 29.4101 18.5182 28.634L18.3123 28.4281L18.2884 28.4038C17.7449 27.8527 17.4754 27.5793 17.4564 27.2896C17.4377 27.0044 17.6616 26.7034 18.1058 26.1061L18.1223 26.0839C18.249 25.9097 18.2648 25.5612 18.1698 25.3711C18.0589 25.1494 17.7896 24.9118 17.5679 24.8801L17.5214 24.8736C16.8189 24.7744 16.4662 24.7246 16.2892 24.5216C16.1107 24.3169 16.1107 23.9566 16.1107 23.2328V22.9477C16.1107 21.6964 16.1107 21.6806 17.3303 21.6806C17.7896 21.6806 18.1381 21.5539 18.1856 21.1104C18.2173 20.8411 18.1064 20.461 17.9163 20.2551L17.8501 20.1814C17.0758 19.3207 17.0687 19.3128 17.9163 18.4652L18.1698 18.2118C19.2311 17.1661 19.2312 17.1662 20.3222 18.0605L20.3714 18.1009C20.5298 18.2276 20.8941 18.3068 21.0525 18.2276C21.2901 18.1167 21.5752 17.8316 21.6227 17.5941C21.6273 17.5643 21.6317 17.5352 21.636 17.5066C21.7373 16.8391 21.7892 16.4969 21.9882 16.3215C22.1975 16.1368 22.5697 16.1368 23.3334 16.1368H23.8402C24.7431 16.1368 24.8223 16.216 24.8381 17.1506C24.8381 17.2141 24.8348 17.2784 24.8316 17.3426C24.8146 17.6784 24.7978 18.0098 25.2499 18.1959C25.6301 18.3543 25.8993 18.3385 26.2161 18.0376C27.1665 17.0872 27.1823 17.103 28.1327 18.0692C28.148 18.0845 28.1633 18.1015 28.1791 18.119C28.2124 18.1559 28.2481 18.1954 28.2911 18.2276C29.3437 19.2802 29.3366 19.2888 28.4246 20.4017L28.4019 20.4293C28.2752 20.5877 28.2119 20.9361 28.3069 21.1104C28.4178 21.348 28.687 21.6331 28.9246 21.6647C28.9556 21.6695 28.986 21.6741 29.0157 21.6786C29.6912 21.781 30.0327 21.8329 30.2053 22.0314C30.3818 22.2345 30.3818 22.591 30.3818 23.312V23.5338C30.3818 24.8326 30.3818 24.8643 29.083 24.8801C28.6554 24.8801 28.3386 25.0227 28.2911 25.4345C28.2752 25.7196 28.3703 26.0839 28.5445 26.2898C28.559 26.3059 28.5732 26.3218 28.5873 26.3373C28.9867 26.7809 29.1899 27.0065 29.186 27.2284C29.1819 27.4581 28.9562 27.6838 28.497 28.143L28.2911 28.3489C27.2454 29.3945 27.2454 29.3945 26.1397 28.4853L26.0894 28.444C25.931 28.3172 25.5825 28.2539 25.4083 28.3331C25.1707 28.444 24.9015 28.7291 24.8698 28.9667C24.8658 28.997 24.862 29.0267 24.8582 29.0558C24.771 29.7267 24.7265 30.0686 24.532 30.2428C24.3298 30.4239 23.9655 30.4239 23.2225 30.4239H22.9374C21.7019 30.4239 21.6702 30.4239 21.6861 29.2042C21.7178 28.5232 21.3376 28.3489 20.7516 28.1588ZM28.0218 19.4631C27.2773 18.4494 27.2615 18.4335 26.5487 19.1463C26.1844 19.5106 25.836 19.6056 25.3925 19.3205C25.2341 19.2097 25.044 19.0988 24.8698 19.0829C24.0461 18.9562 23.7769 18.4811 23.8877 17.7049C23.9511 17.2614 23.6977 17.1347 23.27 17.1189C22.7156 17.103 22.6364 17.404 22.6523 17.8475C22.6534 17.8784 22.6548 17.9094 22.6562 17.9402C22.6741 18.336 22.6914 18.72 22.1771 18.9404C22.1233 18.9626 22.0696 18.985 22.016 19.0074C21.0756 19.4002 20.1703 19.7783 19.4211 18.6394C19.4132 18.6315 19.4013 18.6315 19.3894 18.6315C19.3775 18.6315 19.3656 18.6315 19.3577 18.6236C18.4557 19.2408 18.4707 19.2571 19.1341 19.9837L19.136 19.9858C19.3102 20.1759 19.5319 20.4768 19.4844 20.651C19.3102 21.2688 19.0884 21.9182 18.74 22.4409C18.616 22.6338 18.1804 22.6469 17.8293 22.6575C17.7768 22.659 17.7262 22.6606 17.6788 22.6626C17.2669 22.6785 17.1244 22.8527 17.1402 23.2487C17.1402 23.6288 17.2194 23.9773 17.6946 23.8981C18.5816 23.7555 18.9934 24.1674 19.1518 24.9752C19.1835 25.1335 19.2785 25.2919 19.3736 25.4345C19.6428 25.8463 19.5478 26.1948 19.2152 26.5432C18.477 27.3128 18.4863 27.3193 19.4593 27.9988L19.4844 28.0163C20.0863 26.8442 20.9416 27.0659 21.9395 27.5411C22.4939 27.7945 22.7632 28.048 22.6998 28.6499C22.6523 29.0775 22.6523 29.4735 23.3017 29.4735C23.9194 29.4735 23.9669 29.1092 23.9194 28.6657C23.8561 28.0321 24.0937 27.652 24.7431 27.5411C24.9331 27.5094 25.1232 27.4302 25.2816 27.3194C25.8518 26.9075 26.2953 27.0343 26.7071 27.557C26.9606 27.8737 27.1982 28.1272 27.6417 27.6837C28.0693 27.2718 27.9743 27.0026 27.5783 26.7016C27.0556 26.3057 26.8972 25.8463 27.3249 25.2761C27.4357 25.1177 27.5149 24.9276 27.5466 24.7376C27.6575 24.0406 28.0852 23.8189 28.7346 23.8981C29.1622 23.9456 29.479 23.8822 29.4948 23.312C29.5107 22.6943 29.1622 22.6626 28.7029 22.6785C28.6785 22.6794 28.654 22.6805 28.6296 22.6816L28.6098 22.6826C28.2281 22.7005 27.8491 22.7183 27.6733 22.235C27.6124 22.0789 27.5417 21.9225 27.4713 21.7668C27.0846 20.9114 26.7085 20.0795 28.0218 19.4631ZM23.2858 20.3659C21.6386 20.3659 20.3556 21.633 20.3714 23.2803C20.3714 24.9276 21.6544 26.1789 23.3334 26.1631C24.949 26.1472 26.2003 24.8643 26.1844 23.2487C26.1686 21.633 24.9015 20.3659 23.2858 20.3659ZM23.3017 21.2212C24.3788 21.2212 25.3133 22.1716 25.3133 23.2645C25.3133 24.3574 24.3629 25.3078 23.3017 25.3078C22.2088 25.3078 21.2584 24.3732 21.2426 23.2962C21.2267 22.2033 22.1929 21.2054 23.3017 21.2212Z" fill="white" stroke="white" stroke-width="0.4"/>
</svg>
