<svg width="22" height="16" viewBox="0 0 22 16" fill="none" xmlns="http://www.w3.org/2000/svg">
<path d="M0 1.6C0 1.17565 0.168571 0.768687 0.468629 0.468629C0.768687 0.168571 1.17565 0 1.6 0H19.7333C20.1577 8.94243e-09 20.5646 0.168571 20.8647 0.468629C21.1648 0.768687 21.3333 1.17565 21.3333 1.6C21.3333 2.02435 21.1648 2.43131 20.8647 2.73137C20.5646 3.03143 20.1577 3.2 19.7333 3.2H1.6C1.17565 3.2 0.768687 3.03143 0.468629 2.73137C0.168571 2.43131 0 2.02435 0 1.6ZM4.26667 8C4.26667 7.57565 4.43524 7.16869 4.7353 6.86863C5.03535 6.56857 5.44232 6.4 5.86667 6.4H15.4667C15.891 6.4 16.298 6.56857 16.598 6.86863C16.8981 7.16869 17.0667 7.57565 17.0667 8C17.0667 8.42435 16.8981 8.83131 16.598 9.13137C16.298 9.43143 15.891 9.6 15.4667 9.6H5.86667C5.44232 9.6 5.03535 9.43143 4.7353 9.13137C4.43524 8.83131 4.26667 8.42435 4.26667 8ZM9.06667 12.8C8.64232 12.8 8.23535 12.9686 7.9353 13.2686C7.63524 13.5687 7.46667 13.9757 7.46667 14.4C7.46667 14.8243 7.63524 15.2313 7.9353 15.5314C8.23535 15.8314 8.64232 16 9.06667 16H12.2667C12.691 16 13.098 15.8314 13.398 15.5314C13.6981 15.2313 13.8667 14.8243 13.8667 14.4C13.8667 13.9757 13.6981 13.5687 13.398 13.2686C13.098 12.9686 12.691 12.8 12.2667 12.8H9.06667Z" fill="white"/>
</svg>
